<svg width="10" height="9" viewBox="0 0 10 9" fill="none" xmlns="http://www.w3.org/2000/svg">
<path d="M4.74077 0.445077C4.85649 0.246397 5.14351 0.246396 5.25923 0.445077L6.54987 2.66097C6.59226 2.73375 6.6633 2.78536 6.74561 2.80318L9.25188 3.34591C9.4766 3.39457 9.56529 3.66754 9.4121 3.839L7.70349 5.75122C7.64737 5.81402 7.62024 5.89753 7.62872 5.98132L7.88704 8.53264C7.9102 8.76139 7.67799 8.9301 7.46759 8.83738L5.12097 7.80331C5.0439 7.76935 4.9561 7.76935 4.87903 7.80331L2.53241 8.83738C2.32201 8.9301 2.0898 8.76139 2.11296 8.53264L2.37128 5.98132C2.37976 5.89753 2.35263 5.81402 2.29651 5.75122L0.587903 3.839C0.434707 3.66754 0.523402 3.39457 0.748118 3.34591L3.25439 2.80318C3.3367 2.78536 3.40774 2.73375 3.45013 2.66097L4.74077 0.445077Z" fill="#FFC700"/>
</svg>
